<?xml version="1.0" encoding="utf-8"?>
<!-- Generator: Adobe Illustrator 16.0.0, SVG Export Plug-In . SVG Version: 6.00 Build 0)  -->
<!DOCTYPE svg PUBLIC "-//W3C//DTD SVG 1.1//EN" "http://www.w3.org/Graphics/SVG/1.1/DTD/svg11.dtd">
<svg version="1.1" id="Calque_1" xmlns="http://www.w3.org/2000/svg" xmlns:xlink="http://www.w3.org/1999/xlink" x="0px" y="0px"
	 width="512px" height="512px" viewBox="0 0 512 512" enable-background="new 0 0 512 512" xml:space="preserve">
<g>
	<g>
		<g>
			<g>
				<path fill="#919ACD" d="M447.946,252.998c-12.078-43.293-64.723-111.3-58.191-230.415c0.174-2.913-0.875-5.77-2.893-7.895
					c-2.016-2.125-4.791-3.323-7.711-3.323c0,0-11.074,3.799-11.074,21.268c0,17.477,8.211,102.799,28.133,153.33
					c0.848,2.132,1.725,4.28,2.658,6.471c-43.76,20.733-92.836,31.651-142.586,31.651c-49.712,0-98.797-10.918-142.535-31.651
					c0.889-2.154,1.78-4.31,2.607-6.456c19.945-50.509,30.73-132.02,28.145-153.345c-2.585-21.325-11.056-21.268-11.056-21.268
					c-2.916,0-5.705,1.198-7.728,3.323c-2,2.125-3.054,4.981-2.899,7.895c6.514,118.575-45.966,187.254-58.242,230.335
					c-22.202,77.64,14,177.956,64.764,243.584c2.009,2.613,5.119,4.133,8.407,4.133h237.111c3.285,0,6.398-1.52,8.412-4.133
					C431.557,434.058,469.403,329.653,447.946,252.998z M245.661,479.369h-102.63C88.235,406.132,71.905,323.02,82.378,269.811
					c57.585,22.113,112.168,69.744,163.284,108.48V479.369z M88.119,249.237c3.584-9.918,8.04-19.149,13.02-29.438
					c1.28-2.601,2.544-5.252,3.849-7.962c46.508,21.962,98.558,33.529,151.293,33.529c52.729,0,104.801-11.567,151.321-33.529
					c1.285,2.703,2.57,5.339,3.828,7.933c4.967,10.318,9.438,19.55,12.984,29.482c-60.791,22.881-118.062,72.323-168.133,110.402
					C206.029,321.415,148.924,272.104,88.119,249.237z M369.567,479.369H266.945V378.292
					c51.472-38.999,105.72-86.323,163.108-108.423C442.701,337.087,409.721,425.09,369.567,479.369z"/>
			</g>
		</g>
		<g>
			<polygon fill="#919ACD" points="266.419,47.019 188.253,174.343 283.361,156.026 188.142,304.938 334.25,130.167 
				242.916,138.412 			"/>
			<path fill="#919ACD" d="M188.135,312.418c-1.534,0-3.08-0.482-4.41-1.462c-3.184-2.337-4.009-6.733-1.884-10.048l85.835-134.248
				l-78.008,15.03c-2.963,0.519-5.885-0.657-7.565-3.089c-1.686-2.44-1.774-5.646-0.226-8.174L260.05,43.104
				c1.956-3.154,5.915-4.403,9.289-2.972c3.419,1.446,5.259,5.164,4.324,8.749l-20.865,81.132l80.781-7.297
				c3.17-0.24,5.9,1.315,7.303,3.981c1.401,2.679,1.052,5.944-0.892,8.267L193.884,309.729
				C192.407,311.483,190.283,312.418,188.135,312.418z M283.361,148.549c2.455,0,4.791,1.204,6.193,3.278
				c1.666,2.476,1.725,5.711,0.118,8.231l-32.062,50.121l59.315-70.942l-73.337,6.624c-2.513,0.175-4.806-0.761-6.37-2.608
				c-1.576-1.847-2.154-4.352-1.548-6.703l11.138-43.286L203.51,163.79l78.435-15.11
				C282.428,148.592,282.895,148.549,283.361,148.549z"/>
		</g>
	</g>
</g>
</svg>
